<svg width="320" height="180" viewBox="0 0 320 180" xmlns="http://www.w3.org/2000/svg">
  <defs>
    <linearGradient id="g2" x1="0" y1="0" x2="1" y2="1">
      <stop offset="0%" stop-color="#F97316" />
      <stop offset="100%" stop-color="#FACC15" />
    </linearGradient>
  </defs>
  <rect width="320" height="180" rx="16" fill="url(#g2)" />
  <rect x="34" y="46" width="96" height="88" rx="10" fill="rgba(255,255,255,0.16)" />
  <rect x="190" y="34" width="96" height="88" rx="10" fill="rgba(255,255,255,0.22)" />
  <circle cx="96" cy="78" r="14" fill="#FFFFFF" />
  <path d="M96 98c-11 0-20 6-24 15" stroke="#FFFFFF" stroke-width="3" stroke-linecap="round" fill="none"/>
  <path d="M214 58h40" stroke="#FFFFFF" stroke-width="3" stroke-linecap="round"/>
  <path d="M214 72h28" stroke="#FEFCE8" stroke-width="2.5" stroke-linecap="round"/>
  <path d="M214 86h36" stroke="#FEFCE8" stroke-width="2.5" stroke-linecap="round"/>
  <circle cx="220" cy="120" r="18" fill="#FFFFFF" />
  <path d="M220 112c3 0 5 2 5 5 0 2-1 3-2 4l-2 2" stroke="#F97316" stroke-width="2" stroke-linecap="round" fill="none"/>
  <circle cx="220" cy="126" r="1.6" fill="#F97316" />
  <text x="24" y="36" fill="#FFFBEB" font-size="14" font-family="system-ui, -apple-system, BlinkMacSystemFont, 'Segoe UI', sans-serif" letter-spacing="0.08em">LOST &amp; FOUND</text>
  <text x="24" y="54" fill="#FFFFFF" font-size="18" font-weight="600" font-family="system-ui, -apple-system, BlinkMacSystemFont, 'Segoe UI', sans-serif">Find or return items</text>
</svg>
